<?xml version="1.0" encoding="utf-8"?>
<!-- Svg Vector Icons : http://www.onlinewebfonts.com/icon -->
<!DOCTYPE svg PUBLIC "-//W3C//DTD SVG 1.1//EN" "http://www.w3.org/Graphics/SVG/1.1/DTD/svg11.dtd">
<svg version="1.1" xmlns="http://www.w3.org/2000/svg" xmlns:xlink="http://www.w3.org/1999/xlink" x="0px" y="0px" viewBox="0 0 256 256" enable-background="new 0 0 256 256" xml:space="preserve">
<metadata> Svg Vector Icons : http://www.onlinewebfonts.com/icon </metadata>
<g><g><path fill="#000000" d="M128,196.8c-2.5,0.1-5.1-0.7-7-2.7c-0.4-0.4-0.3-1.1-0.6-1.5L12.7,75.2c-3.7-3.7-3.7-9.6,0-13.3c3.7-3.7,9.6-3.7,13.3,0l102,111.2L230,62c3.7-3.7,9.6-3.7,13.2,0c3.7,3.7,3.7,9.6,0,13.3L135.7,192.5c-0.3,0.5-0.2,1.2-0.7,1.6C133.1,196,130.5,196.9,128,196.8L128,196.8L128,196.8L128,196.8z"/></g></g>
</svg>